<svg xmlns="http://www.w3.org/2000/svg" version="1.1" width="3192"
     height="3167.7873021474566" viewBox="0 0 3192 3167.7873021474566">
    <g transform="scale(9.6) translate(10, 10)">
        <defs id="SvgjsDefs1236"/>
        <g id="SvgjsG1237"
           transform="matrix(3.0663293604554758,0,0,3.0663293604554758,0.13628133105503454,-0.028093627950586963)"
           fill="#000">
            <path xmlns="http://www.w3.org/2000/svg"
                  d="M101.8 83.6l-.2-29.5c0-6 .1-12.2-.2-18-.1-2.5-.1-5.1-.1-7.8 0-4.7-.1-9-.4-13.2l-.2-4.2c-.1-2.7-.2-5.3-.3-8V1h-7.3L77.2.7H66.6a25.7 25.7 0 0 0-5.5.6l-.6.3H49.8c-.1-.2-.8-.3-2.2-.4L34.3.3a130.5 130.5 0 0 0-18.8.1C12.3.6 9 .8 4.6.9L1.5.5H.4v1.2c-.2 2-.3 4.3-.3 7s0 6.8-.1 10.2 0 5.3 0 8a42.2 42.2 0 0 0 .4 6.9 20.3 20.3 0 0 1 .3 2.9c.1 3.8.4 4.8.8 5.5v17.6l-.2.5c.1 4-.1 7.6-.2 11.3-.3 7.4-.4 15-.1 22.5a25.5 25.5 0 0 0 .5 4.9v.8H6l-.2.2h5.4a51 51 0 0 1 8.6.4 21.1 21.1 0 0 0 3.8.3c6.6-.1 12.7.1 18.9.4h6.7l13.9-.3c6.1-.1 11.9-.5 18.3-.5h9.7l3.5-.2 2.8-.5h2.3v-1c.3 1.6.6 1.4 1-.8.1-.6.2-1.3.3-2s.3-2.6.5-3.4a51.3 51.3 0 0 0 .3-8.8z"/>
        </g>
        <g id="SvgjsG1238"
           transform="matrix(18.922349164246413,0,0,18.922349164246413,108.69591587518576,63.695917003045665)"
           fill="#ffffff">
            <g xmlns="http://www.w3.org/2000/svg">
                <path d="M2.1,3.431c0.201-0.289,0.522-0.154,0.599,0.207c0.109,0.517,0.626,0.586,0.626,0.586S2.95,4.566,2.395,4.303   C2.03,4.129,1.963,3.627,2.1,3.431z"/>
                <path d="M2.875,3.441c-0.062-0.346,0.26-0.479,0.57-0.277c0.442,0.288,0.857-0.028,0.857-0.028S4.279,3.644,3.7,3.849   C3.319,3.985,2.917,3.676,2.875,3.441z"/>
                <path d="M3.431,2.9C3.143,2.699,3.277,2.378,3.638,2.302c0.517-0.109,0.586-0.626,0.586-0.626s0.342,0.375,0.078,0.93   C4.129,2.971,3.627,3.037,3.431,2.9z"/>
                <path d="M3.441,2.125c-0.346,0.062-0.479-0.261-0.277-0.57c0.288-0.442-0.028-0.857-0.028-0.857S3.644,0.721,3.85,1.3   C3.985,1.681,3.677,2.083,3.441,2.125z"/>
                <path d="M2.9,1.569C2.699,1.858,2.378,1.723,2.302,1.362C2.193,0.846,1.676,0.775,1.676,0.775s0.375-0.341,0.93-0.078   C2.971,0.871,3.037,1.374,2.9,1.569z"/>
                <path d="M2.125,1.559c0.062,0.347-0.261,0.479-0.57,0.277C1.113,1.547,0.698,1.864,0.698,1.864S0.721,1.357,1.3,1.151   C1.681,1.016,2.083,1.324,2.125,1.559z"/>
                <path d="M1.569,2.1c0.289,0.201,0.154,0.522-0.207,0.599C0.845,2.807,0.775,3.325,0.775,3.325S0.434,2.95,0.697,2.395   C0.871,2.03,1.374,1.963,1.569,2.1z"/>
                <path d="M1.559,2.875c0.347-0.062,0.479,0.261,0.277,0.569C1.547,3.887,1.864,4.303,1.864,4.303S1.356,4.279,1.151,3.7   C1.015,3.32,1.324,2.917,1.559,2.875z"/>
            </g>
        </g>
        <g id="SvgjsG1239"
           transform="matrix(2.05379040532401,0,0,2.05379040532401,57.028809780261724,151.39119213607864)"
           fill="#ffffff">
            <path d="M-0.04 30.240000000000002 l4.04 0 c-0.84 5.16 -0.6 6.16 0.84 6.16 c1.96 0 2.24 -1.64 3 -6 c1.12 -6.4 -7.08 -4.68 -5.6 -13.2 c0.88 -5 1.72 -9.6 7.72 -9.6 c4.44 0 5.2 2.52 4.4 8.56 l-4 0 c0.6 -4.36 0.32 -5.36 -0.96 -5.36 c-1.96 0 -2.36 2.16 -3.12 6.4 c-1.08 6.2 7.28 4 5.64 13.2 c-0.96 5.6 -1.76 10 -7.8 10 c-4.64 0 -5.24 -2.76 -4.16 -10.16 z M13.940000000000001 40 l5.64 -32 l9.2 0 l-0.56 3.2 l-5.2 0 l-1.84 10.4 l4.4 0 l-0.56 3.2 l-4.4 0 l-1.96 11.2 l5.2 0 l-0.72 4 l-9.2 0 z M26.439999999999998 40 l5.64 -32 l4 0 l-4.92 28 l5.2 0 l-0.72 4 l-9.2 0 z M38.54 40 l5.64 -32 l8.4 0 l-0.56 3.2 l-4.4 0 l-2.12 12 l3.6 0 l-0.56 3.2 l-3.6 0 l-2.4 13.6 l-4 0 z M50.24 40 l5.64 -32 l6 0 c6 0 5.24 4.4 3.32 15.16 c-2.16 12.4 -2.96 16.84 -8.96 16.84 l-6 0 z M54.96 36 l2 0 c2.24 0 2.52 -1.68 4.48 -12.84 c1.76 -10 2.12 -11.96 -0.12 -11.96 l-2 0 z M66.34000000000002 40 l5.64 -32 l9.2 0 l-0.56 3.2 l-5.2 0 l-1.84 10.4 l4.4 0 l-0.56 3.2 l-4.4 0 l-1.96 11.2 l5.2 0 l-0.72 4 l-9.2 0 z M82.04 40 l1.24 -32 l4.2 0 l-1.76 23.6 l0.4 0 l6.56 -23.6 l4.2 0 l-10.04 32 l-4.8 0 z"/>
        </g>
    </g>
</svg>
	