<?xml version="1.0" encoding="utf-8"?>
<!-- Generator: Adobe Illustrator 27.0.0, SVG Export Plug-In . SVG Version: 6.00 Build 0)  -->
<svg version="1.1" id="Layer_1" xmlns="http://www.w3.org/2000/svg" xmlns:xlink="http://www.w3.org/1999/xlink" x="0px" y="0px"
	 viewBox="0 0 1100 1100" style="enable-background:new 0 0 1100 1100;" xml:space="preserve">
<style type="text/css">
	.st0{fill:#FFFFFF;}
</style>
<rect y="0" class="st0" width="1100" height="1100"/>
<g>
	<path d="M100.4,149.2h54L189,277.7l42-128.5h41.1l39.1,128.5l37.6-128.5h54L339.2,348h-52.8L250.4,233L212.2,348h-52.5L100.4,149.2
		z"/>
	<path d="M530.6,149.2V193h-65.4v33.1h62.1v43.8h-62.1v34.3h65.4V348h-117V149.2H530.6z"/>
	<path d="M629.3,348h-82.9V149.2h76.9c19.7,0,34.2,5.2,43.5,15.5c8.1,8.9,12.2,21.4,12.2,37.3c0,8.7-1.9,16.9-5.7,24.4
		c-4,7.4-9.3,12.5-16.1,15.5c11.1,1.2,20.2,5.2,27.1,11.9c8.9,8.5,13.4,20.7,13.4,36.4c0,16.3-4.9,29.3-14.6,39
		C671.1,341.8,653.1,348,629.3,348z M598,188.8v38.8h9.5c9.1,0,15.7-2.1,19.7-6.3c3.2-3.2,4.8-7.6,4.8-13.1c0-5.4-1.6-9.8-4.8-13.4
		c-4-4-10.5-6-19.7-6H598z M598,266.1v41.7h11.6c16.7,0,27.3-2.7,31.9-8c2.8-3.2,4.2-7.5,4.2-12.8c0-6.2-1.7-10.9-5.1-14.3
		c-4.4-4.4-15-6.6-31.9-6.6H598z"/>
</g>
<g>
	<path d="M273.7,410.7h-61.3v155h-51.6v-155h-60.3v-43.8h173.2V410.7z"/>
	<path d="M337.2,366.9v74.2h76.5v-74.2h51.9v198.8h-51.9v-80.5h-76.5v80.5h-51.6V366.9H337.2z"/>
	<path d="M479.2,366.9h51.6v117.7c0,13.9,3.4,24.1,10.1,30.7c6.8,6.4,14.9,9.5,24.4,9.5c9.5,0,17.5-2.9,23.8-8.6
		c3.6-3.2,6.3-7.2,8.2-12.1c1.9-4.9,2.9-8.7,3.1-11.6c0.2-2.9,0.3-7,0.3-12.4V366.9h51.6v114.2c0,8.7-0.3,15.9-0.9,21.6
		c-0.6,5.7-2.6,12.5-6.1,20.6c-3.5,8-8.6,15.5-15.4,22.2c-16.3,16.5-38.2,24.7-65.6,24.7c-29,0-51-7.9-65.9-23.8
		c-12.9-14.1-19.4-35.9-19.4-65.3V366.9z"/>
	<path d="M768.5,493.3v-40.2H871c0,20.5-2.4,37.8-7.3,52c-4.9,14.2-13.1,26.7-24.6,37.4c-17.9,16.7-41.2,25-70.1,25
		c-31.6,0-57-9.8-76.3-29.5c-19.1-19.1-28.6-43-28.6-71.8c0-30.2,9.9-55,29.8-74.5c19.5-19.5,45.2-29.2,77.2-29.2
		c21.1,0,38.9,4.5,53.7,13.4c15.5,9.5,27.3,23.2,35.5,40.8L811.1,437c-3.2-7.9-8-14.6-14.3-20c-7.9-6.6-17.2-9.8-27.7-9.8
		c-13.5,0-24.8,4.6-34,13.7c-11.5,11.5-17.3,26.7-17.3,45.6c0,17.5,5.3,31.8,15.8,42.9c9.5,10.1,21.7,15.2,36.4,15.2
		c11.7,0,21.3-3.1,28.6-9.2c6.6-5.4,10.6-12.7,12.2-22.1H768.5z"/>
</g>
<g>
	<rect x="397.1" y="821" transform="matrix(6.123234e-17 -1 1 6.123234e-17 -501.4722 1347.3285)" width="51.7" height="206.9"/>
	<g>
		<path d="M319.5,856.3L161,950.2v-54.8l100.2-62.5L161,770.4V716L319.5,810V856.3z"/>
	</g>
</g>
</svg>
